<?xml version="1.0" standalone="no"?>
<!DOCTYPE svg PUBLIC "-//W3C//DTD SVG 20010904//EN"
 "http://www.w3.org/TR/2001/REC-SVG-20010904/DTD/svg10.dtd">
<svg version="1.0" xmlns="http://www.w3.org/2000/svg"
 width="793.000000pt" height="793.000000pt" viewBox="0 0 793.000000 793.000000"
 preserveAspectRatio="xMidYMid meet">
<metadata>
Created by potrace 1.14, written by Peter Selinger 2001-2017
</metadata>
<g transform="translate(0.000000,793.000000) scale(0.100000,-0.100000)"
fill="#000000" stroke="none">
<path d="M0 3965 l0 -3965 3965 0 3965 0 0 3965 0 3965 -3965 0 -3965 0 0
-3965z m4445 3508 c139 -69 195 -138 195 -238 0 -52 -17 -159 -44 -281 -9 -38
-20 -98 -25 -134 -5 -36 -17 -105 -26 -155 -29 -158 -43 -324 -33 -405 4 -41
9 -136 9 -210 1 -118 -3 -146 -25 -220 -27 -87 -120 -287 -195 -419 -52 -93
-74 -161 -106 -331 -21 -115 -43 -206 -71 -307 -4 -15 0 -24 14 -32 16 -9 48
4 183 72 295 147 570 239 794 266 177 20 202 22 350 22 179 1 260 -12 379 -59
88 -35 129 -66 195 -146 42 -52 53 -140 24 -193 -17 -31 -36 -52 -167 -193
-34 -36 -97 -105 -140 -155 -44 -49 -168 -178 -275 -286 -193 -192 -197 -196
-279 -228 -63 -25 -91 -32 -119 -28 -46 8 -53 19 -53 92 0 114 81 283 204 427
77 89 83 114 30 124 -153 28 -488 -52 -713 -171 -46 -25 -97 -57 -115 -71 -17
-14 -98 -77 -181 -141 -299 -229 -372 -331 -414 -578 -69 -409 -57 -331 -155
-1055 -30 -223 -56 -443 -58 -489 l-3 -84 40 -14 c39 -14 117 -33 219 -53 105
-21 299 -30 401 -19 120 14 260 48 358 88 230 94 276 113 309 129 21 9 38 20
38 24 0 3 26 21 58 39 31 18 69 40 83 49 14 8 70 39 124 69 54 30 130 75 169
101 216 142 292 190 401 253 66 38 156 95 200 126 44 32 148 102 230 155 83
54 175 119 205 145 59 51 144 112 383 277 37 25 67 49 67 53 0 10 179 147 285
218 109 72 271 190 323 235 50 43 106 40 160 -10 41 -38 42 -40 42 -103 -1
-100 -34 -173 -192 -423 -44 -70 -429 -473 -525 -549 -26 -21 -107 -96 -178
-165 -255 -249 -404 -362 -913 -698 -96 -62 -200 -134 -232 -158 -32 -25 -101
-67 -152 -94 -51 -27 -122 -67 -158 -89 -116 -72 -215 -117 -375 -171 -33 -12
-109 -39 -170 -62 -104 -38 -278 -85 -411 -110 -72 -14 -348 0 -459 24 -38 8
-115 20 -170 26 -55 6 -122 18 -149 26 -67 19 -103 18 -114 -3 -5 -10 -15 -43
-22 -73 -18 -80 -45 -115 -114 -146 -64 -29 -127 -28 -172 0 -30 20 -69 90
-89 161 -15 51 -16 69 -6 116 6 30 11 78 11 106 l0 52 -57 34 c-32 19 -78 45
-103 57 -25 12 -76 45 -113 74 -66 49 -70 55 -137 191 -45 90 -76 170 -89 225
-49 207 -65 493 -36 632 9 40 20 118 25 173 11 123 50 243 114 354 25 44 46
84 46 89 0 12 90 147 170 256 60 82 109 142 265 320 120 137 115 129 135 233
42 214 71 353 95 453 14 58 30 136 35 173 6 38 18 98 26 135 13 54 54 282 54
297 0 7 -164 -71 -206 -97 -21 -14 -82 -47 -134 -73 -105 -54 -310 -183 -352
-222 -14 -14 -29 -24 -32 -24 -6 1 -28 -15 -153 -111 -20 -16 -61 -50 -92 -77
-69 -60 -206 -169 -298 -235 -387 -282 -442 -328 -588 -491 -198 -223 -234
-272 -296 -416 -226 -524 -320 -747 -379 -904 -20 -55 -47 -120 -58 -145 -30
-65 -69 -181 -98 -289 -24 -93 -96 -238 -144 -288 -25 -28 -84 -58 -128 -66
-78 -15 -291 83 -344 159 -25 35 -27 47 -28 132 0 181 149 856 270 1221 28 85
67 215 86 290 43 167 64 232 123 386 26 66 60 163 75 215 28 98 99 332 167
550 46 149 133 490 155 607 32 171 117 472 225 797 38 115 69 216 69 226 0 60
150 448 189 486 60 60 122 73 212 45 35 -11 79 -22 98 -23 41 -3 113 -64 142
-120 53 -105 45 -276 -28 -558 -67 -259 -98 -393 -118 -505 -9 -55 -28 -154
-41 -221 -13 -67 -33 -172 -44 -235 -11 -63 -28 -159 -40 -214 -21 -105 -25
-165 -12 -165 14 0 153 89 210 136 83 66 259 188 402 277 69 43 150 97 180
118 30 22 80 57 110 77 30 20 57 39 60 42 3 3 21 17 40 30 19 13 62 47 95 75
33 28 105 82 160 120 55 38 153 109 218 157 65 48 122 88 127 88 4 0 14 7 21
17 15 18 169 135 265 201 109 75 113 80 140 172 14 47 29 110 35 140 6 30 23
109 38 175 88 370 102 440 116 570 13 129 65 250 128 299 18 14 40 32 49 40
75 65 175 69 293 9z"/>
</g>
</svg>
